<?xml version="1.0" standalone="no"?>
<!DOCTYPE svg PUBLIC "-//W3C//DTD SVG 20010904//EN"
 "http://www.w3.org/TR/2001/REC-SVG-20010904/DTD/svg10.dtd">
<svg version="1.0" xmlns="http://www.w3.org/2000/svg"
 width="40.000000pt" height="40.000000pt" viewBox="0 0 64.000000 64.000000"
 preserveAspectRatio="xMidYMid meet">

<g transform="translate(0.000000,64.000000) scale(0.100000,-0.100000)"
fill="#757D88" stroke="none">
<path d="M225 550 c-70 -71 -87 -92 -77 -102 10 -10 27 2 82 57 l70 69 2 -244
c3 -210 5 -245 18 -245 13 0 15 35 18 245 l2 244 70 -69 c55 -55 72 -67 82
-57 10 10 -7 31 -77 102 -49 50 -92 90 -95 90 -3 0 -46 -40 -95 -90z"/>
<path d="M87 174 c-4 -4 -7 -36 -7 -71 0 -103 0 -103 240 -103 188 0 201 1
220 20 18 18 20 31 18 88 -2 52 -6 67 -18 67 -11 0 -16 -16 -20 -65 l-5 -65
-195 0 -195 0 -5 64 c-5 59 -16 82 -33 65z"/>
</g>
</svg>
